<svg width="55" height="52" viewBox="0 0 55 52" fill="none" xmlns="http://www.w3.org/2000/svg">
<path fill-rule="evenodd" clip-rule="evenodd" d="M27.2016 0L16.2244 26.7651L15.8036 27.791L14.7339 30.3993C12.9624 33.4328 9.66538 35.4811 5.88372 35.5126C8.10799 35.531 10.1646 36.2472 11.8417 37.451L9.19225 43.9112C8.78295 44.9988 8.19173 46.1089 7.4186 47.2418C6.64548 48.3747 5.80413 49.3264 4.89457 50.0967C4.03049 50.8218 1.37571 51.7825 0.511628 51.8732L0 52H20.8488L19.6977 51.8732C17.4238 51.7825 11.6708 50.4139 10.6248 48.8732C9.62429 47.2871 9.53333 45.5198 10.3519 43.5713L12.5881 38.0406C14.7304 39.8987 16.091 42.6208 16.1166 45.6585C16.1638 40.0759 20.7188 35.5585 26.3488 35.5118C21.7241 35.4734 17.8246 32.4189 16.5535 28.2349L22.4946 13.6628L30.2713 33.2392L30.6124 34.1229L34.7054 44.251C35.615 46.4714 35.7059 48.2162 34.9783 49.485C34.2961 50.7085 28.907 51.8732 26.8605 51.8732L24.814 52H55L53.0814 51.8732C50.6256 51.8732 47.553 48.8506 45.5519 43.9112L27.8155 0H27.2016Z" fill="white"/>
</svg>
