<svg width="133" height="53" viewBox="0 0 133 53" fill="none" xmlns="http://www.w3.org/2000/svg">
<path d="M22.5725 14.3506C24.1221 14.3506 25.5784 14.4751 26.9407 14.7246C28.3029 14.9741 29.5547 15.3156 30.6956 15.748C31.8534 16.1805 32.909 16.6961 33.8625 17.2949C34.8161 17.8937 35.668 18.5426 36.4172 19.2412L33.9133 22.959C33.5217 23.5409 33.011 23.8982 32.3811 24.0312C31.7681 24.1643 31.1041 24.0145 30.3889 23.582C29.7078 23.1828 29.0605 22.8423 28.4475 22.5596C27.8516 22.2602 27.2386 22.0189 26.6086 21.8359C25.9786 21.653 25.3146 21.5197 24.6165 21.4365C23.9184 21.3534 23.1351 21.3115 22.2668 21.3115C20.6492 21.3115 19.1928 21.5946 17.8987 22.1602C16.6046 22.7091 15.4979 23.4912 14.5784 24.5059C13.676 25.5204 12.9774 26.7426 12.4836 28.1729C11.9898 29.5867 11.7434 31.1675 11.7434 32.9141C11.7434 34.8435 12.0159 36.5567 12.5608 38.0537C13.1057 39.5507 13.872 40.8154 14.8596 41.8467C15.8641 42.8777 17.0558 43.6679 18.4348 44.2168C19.831 44.749 21.3722 45.0146 23.0579 45.0146C24.0964 45.0146 25.0332 44.9153 25.8674 44.7158C26.7188 44.5162 27.5456 44.2497 28.3459 43.917V32.2656H36.1614V47.6104C34.2543 48.9742 32.2194 49.9637 30.0569 50.5791C27.9114 51.1945 25.6636 51.5019 23.3137 51.502C20.2487 51.502 17.4559 51.0369 14.9358 50.1055C12.4327 49.1574 10.2872 47.8596 8.49927 46.2129C6.71132 44.5495 5.33217 42.5864 4.36157 40.3242C3.391 38.0454 2.90553 35.5754 2.90552 32.9141C2.90552 30.2029 3.36504 27.7162 4.28442 25.4541C5.2039 23.1754 6.51531 21.2121 8.21802 19.5654C9.93786 17.9187 12.0071 16.6375 14.425 15.7227C16.8599 14.8079 19.5758 14.3506 22.5725 14.3506Z" fill="#005A9C"/>
<path fill-rule="evenodd" clip-rule="evenodd" d="M57.6379 27.2503L61.0861 37.2057H53.0626L51.0993 42.9444H57.4283C61.9094 42.2086 66.4407 41.7331 70.9762 41.4484L60.3964 14.75H51.5588L38.3822 48.0014C41.6067 46.7565 44.8985 45.7202 48.2377 44.8623L48.9024 42.9444L50.8947 37.2057L54.3174 27.3002C54.5728 26.6682 54.8453 25.9196 55.1347 25.0547C55.3121 24.5246 55.4831 23.9665 55.6477 23.3802C55.7518 23.0098 55.8532 22.6281 55.9521 22.2352C56.0657 22.6271 56.1794 23.0088 56.2931 23.3802C56.3991 23.7267 56.5053 24.0643 56.6113 24.393C56.6811 24.6091 56.7508 24.8213 56.8205 25.0297C57.11 25.878 57.3825 26.6183 57.6379 27.2503ZM47.9163 45.7896C44.5417 46.6775 41.2194 47.7508 37.9702 49.0413L37.1531 51.1033H43.8962C44.6114 51.1033 45.2074 50.9203 45.6842 50.5544C45.8943 50.3915 46.0768 50.2212 46.2314 50.0433C46.4401 49.8032 46.5983 49.5494 46.7058 49.2819L47.9163 45.7896ZM65.2494 49.2819L63.0635 42.9752C65.7964 42.652 68.5426 42.414 71.2923 42.2459L74.8022 51.1033H68.1101C67.3609 51.1033 66.7564 50.9369 66.2967 50.6043C65.8369 50.2549 65.4878 49.8141 65.2494 49.2819Z" fill="#005A9C"/>
<path fill-rule="evenodd" clip-rule="evenodd" d="M109.913 27.2503L113.361 37.2057H105.338L103.536 42.471C104.586 42.6152 105.634 42.7727 106.678 42.9444H115.328L116.006 44.8992C119.349 45.7645 122.646 46.8097 125.873 48.0654L112.672 14.75H103.834L93.2512 41.4558C95.9846 41.6293 98.7161 41.8724 101.436 42.2003L103.17 37.2057L106.593 27.3002C106.848 26.6682 107.12 25.9196 107.41 25.0547C107.587 24.5246 107.758 23.9665 107.923 23.3802C108.027 23.0098 108.128 22.6281 108.227 22.2352C108.341 22.6271 108.455 23.0088 108.568 23.3802C108.674 23.7267 108.78 24.0643 108.886 24.393C108.956 24.6091 109.026 24.8213 109.096 25.0297C109.385 25.878 109.658 26.6183 109.913 27.2503ZM101.162 42.989C98.4301 42.6633 95.6845 42.4231 92.9353 42.2531L89.4282 51.1033H96.1714C96.8865 51.1033 97.4825 50.9203 97.9593 50.5544C98.1695 50.3915 98.3519 50.2212 98.5066 50.0433C98.7153 49.8032 98.8734 49.5494 98.981 49.2819L101.162 42.989ZM117.525 49.2819L116.327 45.8276C119.707 46.7233 123.034 47.8059 126.287 49.1078L127.077 51.1033H120.385C119.636 51.1033 119.032 50.9369 118.572 50.6043C118.112 50.2549 117.763 49.8141 117.525 49.2819Z" fill="#005A9C"/>
<path fill-rule="evenodd" clip-rule="evenodd" d="M89.428 7.12914C89.428 11.0665 82.166 18.9169 82.166 18.9169C82.166 18.9169 74.9041 11.0665 74.9041 7.12914C74.9041 3.19182 78.1554 0 82.166 0C86.1767 0 89.428 3.19182 89.428 7.12914ZM86.4082 7.05855C86.4082 9.39755 84.4767 11.2937 82.0941 11.2937C79.7115 11.2937 77.7801 9.39755 77.7801 7.05855C77.7801 4.71955 79.7115 2.82342 82.0941 2.82342C84.4767 2.82342 86.4082 4.71955 86.4082 7.05855Z" fill="#FF7A00"/>
<path d="M82.0566 41.9106C83.5091 41.9169 84.9645 41.9376 86.4209 41.9741V51.103H77.7363V41.9722C79.1729 41.9365 80.6083 41.9169 82.041 41.9106H82.0566ZM77.7363 16.187C78.4798 17.1561 79.1895 18.018 79.749 18.6733C80.0983 19.0825 80.3901 19.4138 80.5957 19.644C80.6985 19.7591 80.7805 19.8487 80.8369 19.9106C80.8651 19.9416 80.8871 19.9663 80.9023 19.9829C80.9099 19.9911 80.9157 19.9979 80.9199 20.0024L80.9277 20.0103L82.166 21.3491L83.4053 20.0103L83.4072 20.0073L83.4121 20.0024C83.4163 19.9979 83.4222 19.9911 83.4297 19.9829C83.445 19.9663 83.4669 19.9416 83.4951 19.9106C83.5515 19.8487 83.6335 19.7592 83.7363 19.644C83.9419 19.4138 84.2337 19.0825 84.583 18.6733C85.0982 18.0698 85.7416 17.2916 86.4209 16.4155V41.1577C84.9651 41.1214 83.511 41.1015 82.0605 41.0952H82.0381C80.6072 41.1015 79.1724 41.1212 77.7363 41.1567V16.187Z" fill="#005A9C"/>
<path d="M82.0567 41.9106C97.2781 41.9767 112.799 43.576 126.9 49.356C128.464 50.0297 129.99 50.7408 131.428 51.622C129.956 50.7972 128.409 50.1451 126.826 49.5276C112.583 44.2656 97.206 42.959 82.0567 42.8891C82.0516 42.8891 82.0464 42.8891 82.0413 42.8891C66.8878 42.9599 51.5061 44.2707 37.2568 49.53C35.6731 50.1473 34.141 50.7899 32.6677 51.6137C34.1075 50.7334 35.618 50.0319 37.1838 49.3584C51.2906 43.581 66.8156 41.9774 82.0413 41.9106C82.0464 41.9106 82.0516 41.9106 82.0567 41.9106Z" fill="#005A9C"/>
<ellipse cx="132.082" cy="52.103" rx="0.918181" ry="0.896923" fill="#FF7A00"/>
<path d="M6.34834 16.4711C12.7965 10.5038 22.748 10.0105 30.5644 13.0002C31.3639 13.2885 32.1253 13.5948 32.9181 13.9431C32.1024 13.6496 31.3227 13.397 30.5096 13.161C22.5132 10.7072 13.1343 11.5465 7.02769 17.19C2.17504 21.5281 -0.357555 28.2794 0.725461 34.7719C0.857819 35.5836 1.04241 36.3848 1.28253 37.1816C0.972066 36.4083 0.717877 35.6202 0.518903 34.8122C-1.12452 28.3482 1.22088 21.0279 6.34834 16.4711Z" fill="#005A9C"/>
<ellipse cx="33.5859" cy="14.2695" rx="0.918181" ry="0.896923" fill="#005A9C"/>
</svg>
