<svg width="113" height="152" viewBox="0 0 113 152" fill="none" xmlns="http://www.w3.org/2000/svg">
<g filter="url(#filter0_f_136_421)">
<path d="M92.2352 20.8116C82.3056 10.843 68.8599 5.16654 54.7888 5.00311C47.5826 4.92605 40.433 6.27983 33.7537 8.98616C27.0756 11.6914 21.0005 15.6952 15.8803 20.7642C9.15157 27.471 4.3112 35.8331 1.84757 45.007C-0.615856 54.1798 -0.615856 63.8416 1.84757 73.0144C4.311 82.1883 9.15157 90.5504 15.8803 97.256L16.0425 97.4182C21.0694 102.393 25.4128 108.013 28.9581 114.131L44.7487 141.715C46.6426 144.986 50.1381 147 53.919 147C57.6998 147 61.1953 144.986 63.0893 141.715L79.0422 114.085C82.6298 107.902 87.0284 102.227 92.1197 97.21C98.8484 90.5033 103.689 82.1423 106.152 72.9684C108.616 63.7944 108.616 54.1338 106.152 44.9598C103.689 35.7871 98.8484 27.425 92.1197 20.7182L92.2352 20.8116ZM88.8031 94.08C83.4794 99.3434 78.8782 105.291 75.1226 111.767L59.1697 139.396C58.1054 141.237 56.1391 142.372 54.0115 142.372C51.8829 142.372 49.9167 141.237 48.8522 139.396L32.8992 111.767C29.078 105.231 24.3988 99.2362 18.9864 93.9419C12.8617 87.7885 8.46762 80.1304 6.24699 71.7385C4.02634 63.3466 4.05856 54.5178 6.3402 46.1418C8.62182 37.7673 13.0722 30.1402 19.2419 24.0326C28.4996 14.8619 40.9904 9.69314 54.0225 9.63778H54.6945C67.7434 9.81031 80.1938 15.1381 89.3249 24.4581C98.4572 33.7769 103.528 46.3315 103.43 59.3771C103.332 72.4222 98.0736 84.898 88.8031 94.08Z" fill="black"/>
<path d="M54.023 21.2032C43.998 21.2286 34.3926 25.2302 27.319 32.3315C20.245 39.4316 16.2812 49.0495 16.2974 59.0712C16.3135 69.0917 20.3095 78.697 27.4064 85.7744C34.5034 92.8516 44.1211 96.8223 54.1462 96.814C64.1712 96.806 73.7822 92.8195 80.8676 85.7306C87.953 78.6419 91.9339 69.0307 91.9339 59.0091C91.9086 48.9736 87.9044 39.358 80.7972 32.2702C73.69 25.1839 64.0608 21.2032 54.023 21.2032ZM54.023 92.225C45.2301 92.2008 36.8079 88.6892 30.6038 82.461C24.3999 76.2339 20.9228 67.7982 20.9342 59.0094C20.9469 50.2206 24.4483 41.7954 30.6695 35.5854C36.8907 29.3743 45.3234 25.8859 54.1152 25.8859C62.9082 25.8859 71.3397 29.3746 77.5621 35.5846C83.7834 41.7957 87.2847 50.2209 87.2962 59.0097C87.2847 67.8238 83.7731 76.2719 77.5345 82.499C71.2959 88.7272 62.8387 92.225 54.023 92.225Z" fill="black"/>
<path fill-rule="evenodd" clip-rule="evenodd" d="M75.1227 111.767C78.8782 105.291 83.4794 99.3434 88.8032 94.08C98.0745 84.8979 103.332 72.4228 103.43 59.3772C103.528 46.3315 98.4573 33.7769 89.325 24.4581C80.1939 15.1381 67.7435 9.81032 54.6945 9.63779H54.0226C40.9905 9.69314 28.4997 14.8619 19.2419 24.0326C13.0722 30.1402 8.62189 37.7673 6.34027 46.1418C4.05864 54.5178 4.02641 63.3467 6.24706 71.7385C8.46769 80.1304 12.8618 87.7885 18.9864 93.9419C24.3988 99.2362 29.0781 105.231 32.8993 111.767L48.8522 139.396C49.9167 141.237 51.883 142.372 54.0116 142.372C56.1391 142.372 58.1055 141.237 59.1698 139.396L75.1227 111.767ZM54.0231 21.2033C43.998 21.2286 34.3927 25.2302 27.319 32.3315C20.245 39.4316 16.2813 49.0496 16.2975 59.0712C16.3136 69.0917 20.3096 78.697 27.4065 85.7744C34.5034 92.8516 44.1211 96.8223 54.1462 96.814C64.1713 96.806 73.7822 92.8195 80.8676 85.7306C87.9531 78.642 91.934 69.0307 91.934 59.0091C91.9086 48.9736 87.9045 39.358 80.7973 32.2702C73.69 25.184 64.0608 21.2033 54.0231 21.2033Z" fill="#D75656"/>
<path fill-rule="evenodd" clip-rule="evenodd" d="M30.6037 82.461C36.8078 88.6892 45.2299 92.2009 54.0229 92.225C62.8385 92.225 71.2957 88.7272 77.5343 82.499C83.7729 76.2719 87.2846 67.8238 87.2961 59.0097C87.2846 50.2209 83.7832 41.7957 77.562 35.5846C71.3396 29.3746 62.908 25.8859 54.1151 25.8859C45.3233 25.8859 36.8906 29.3743 30.6693 35.5855C24.4481 41.7954 20.9468 50.2206 20.9341 59.0094C20.9226 67.7982 24.3998 76.2339 30.6037 82.461Z" fill="#FFE0E0"/>
<path d="M76.6829 74.0867C76.6829 73.8719 76.5978 73.6658 76.4455 73.5139C76.2937 73.3621 76.0879 73.2765 75.8728 73.2765H59.7817L62.3382 76.3432V76.3435C62.5601 76.6126 62.6897 76.9457 62.7082 77.2939C62.7267 77.6425 62.6332 77.9873 62.441 78.2786L60.3756 81.3769H75.8724C76.0876 81.3769 76.2933 81.2917 76.4452 81.1395C76.5974 80.9876 76.6826 80.7819 76.6826 80.5667L76.6829 74.0867Z" fill="black"/>
<path d="M32.1318 81.3768H47.997L52.1452 77.2287C52.2971 77.0768 52.3822 76.8707 52.3822 76.6559V73.2765H32.1315C31.6842 73.2765 31.3213 73.6394 31.3213 74.0867V80.5671V80.5667C31.3213 80.7819 31.4068 80.9876 31.5587 81.1395C31.7106 81.2917 31.9167 81.3769 32.1315 81.3769L32.1318 81.3768Z" fill="black"/>
<path d="M47.8089 66.3586L54.0462 61.5072L54.8066 54.6591L53.6524 46.5814C53.5894 46.139 53.736 45.6928 54.0492 45.374C54.3623 45.0552 54.8058 44.9003 55.2493 44.9553C55.6929 45.0107 56.0851 45.2692 56.3109 45.6547L60.2759 52.4524V52.4528C60.4018 52.6683 60.476 52.9099 60.4937 53.1589L61.2602 64.6542C61.2983 65.2334 61.0251 65.7892 60.5424 66.1121L56.7141 68.6599L58.5108 71.6568H66.9628C67.3923 71.6568 67.8046 71.4861 68.1083 71.1823C68.412 70.8786 68.5828 70.4664 68.5828 70.0368V49.4657L54.0024 39.7455L39.4221 49.4657L39.4225 70.0368C39.4225 70.4664 39.5932 70.8786 39.8969 71.1823C40.2007 71.4861 40.6129 71.6568 41.0425 71.6568H51.0058L47.7511 68.8671C47.3811 68.5502 47.1731 68.084 47.1851 67.5972C47.1968 67.1103 47.4271 66.6543 47.8118 66.3559L47.8089 66.3586Z" fill="black"/>
<path d="M43.4717 37.6349V40.9247L46.7117 38.7651V37.6349H43.4717Z" fill="black"/>
<path d="M36.3175 48.615C36.4366 48.7937 36.622 48.918 36.8327 48.9598C37.0433 49.002 37.2622 48.9587 37.4409 48.8392L53.5531 38.0974C53.8252 37.9158 54.1798 37.9158 54.4522 38.0974L70.5635 48.8392V48.8389C70.9403 49.0627 71.425 48.9659 71.6869 48.6147C71.8064 48.436 71.8497 48.2171 71.8075 48.0065C71.7657 47.7958 71.6413 47.6104 71.4627 47.4913L54.4523 36.1514V36.151C54.1799 35.9694 53.8253 35.9694 53.5532 36.151L36.5428 47.4909L36.5424 47.4913C36.3638 47.6104 36.2399 47.7958 36.1976 48.0065C36.1554 48.2171 36.1988 48.436 36.3182 48.6147L36.3175 48.615Z" fill="black"/>
</g>
<defs>
<filter id="filter0_f_136_421" x="-5" y="0" width="118" height="152" filterUnits="userSpaceOnUse" color-interpolation-filters="sRGB">
<feFlood flood-opacity="0" result="BackgroundImageFix"/>
<feBlend mode="normal" in="SourceGraphic" in2="BackgroundImageFix" result="shape"/>
<feGaussianBlur stdDeviation="2.5" result="effect1_foregroundBlur_136_421"/>
</filter>
</defs>
</svg>
