<svg width="128" height="162" viewBox="0 0 128 162" fill="none" xmlns="http://www.w3.org/2000/svg">
<g filter="url(#filter0_f_136_392)">
<path d="M102.235 25.8116C92.3056 15.843 78.8599 10.1665 64.7888 10.0031C57.5826 9.92605 50.433 11.2798 43.7537 13.9862C37.0756 16.6914 31.0005 20.6952 25.8803 25.7642C19.1516 32.471 14.3112 40.8331 11.8476 50.007C9.38414 59.1798 9.38414 68.8416 11.8476 78.0144C14.311 87.1883 19.1516 95.5504 25.8803 102.256L26.0425 102.418C31.0694 107.393 35.4128 113.013 38.9581 119.131L54.7487 146.715C56.6426 149.986 60.1381 152 63.919 152C67.6998 152 71.1953 149.986 73.0893 146.715L89.0422 119.085C92.6298 112.902 97.0284 107.227 102.12 102.21C108.848 95.5033 113.689 87.1423 116.152 77.9684C118.616 68.7944 118.616 59.1338 116.152 49.9598C113.689 40.7871 108.848 32.425 102.12 25.7182L102.235 25.8116ZM98.8031 99.08C93.4794 104.343 88.8782 110.291 85.1226 116.767L69.1697 144.396C68.1054 146.237 66.1391 147.372 64.0115 147.372C61.8829 147.372 59.9167 146.237 58.8522 144.396L42.8992 116.767C39.078 110.231 34.3988 104.236 28.9864 98.9419C22.8617 92.7885 18.4676 85.1304 16.247 76.7385C14.0263 68.3466 14.0586 59.5178 16.3402 51.1418C18.6218 42.7673 23.0722 35.1402 29.2419 29.0326C38.4996 19.8619 50.9904 14.6931 64.0225 14.6378H64.6945C77.7434 14.8103 90.1938 20.1381 99.3249 29.4581C108.457 38.7769 113.528 51.3315 113.43 64.3771C113.332 77.4222 108.074 89.898 98.8031 99.08Z" fill="black"/>
<path d="M64.023 26.2033C53.998 26.2286 44.3926 30.2302 37.319 37.3315C30.245 44.4316 26.2812 54.0495 26.2974 64.0712C26.3135 74.0917 30.3095 83.697 37.4064 90.7744C44.5034 97.8516 54.1211 101.822 64.1462 101.814C74.1712 101.806 83.7822 97.8195 90.8676 90.7306C97.953 83.6419 101.934 74.0307 101.934 64.0091C101.909 53.9736 97.9044 44.358 90.7972 37.2702C83.69 30.1839 74.0608 26.2033 64.023 26.2033ZM64.023 97.225C55.2301 97.2008 46.8079 93.6892 40.6038 87.461C34.3999 81.2339 30.9228 72.7982 30.9342 64.0094C30.9469 55.2206 34.4483 46.7954 40.6695 40.5854C46.8907 34.3743 55.3234 30.8859 64.1152 30.8859C72.9082 30.8859 81.3397 34.3746 87.5621 40.5846C93.7834 46.7957 97.2847 55.2209 97.2962 64.0097C97.2847 72.8238 93.7731 81.2719 87.5345 87.499C81.2959 93.7272 72.8387 97.225 64.023 97.225Z" fill="black"/>
<path fill-rule="evenodd" clip-rule="evenodd" d="M85.1227 116.767C88.8782 110.291 93.4794 104.343 98.8032 99.08C108.074 89.8978 113.332 77.4228 113.43 64.3771C113.528 51.3315 108.457 38.7769 99.325 29.4581C90.1939 20.1381 77.7435 14.8103 64.6945 14.6378H64.0226C50.9905 14.6931 38.4997 19.8619 29.2419 29.0326C23.0722 35.1402 18.6219 42.7673 16.3403 51.1418C14.0586 59.5178 14.0264 68.3466 16.2471 76.7385C18.4677 85.1304 22.8618 92.7885 28.9864 98.9419C34.3988 104.236 39.0781 110.231 42.8993 116.767L58.8522 144.396C59.9167 146.237 61.883 147.372 64.0116 147.372C66.1391 147.372 68.1055 146.237 69.1698 144.396L85.1227 116.767ZM64.0231 26.2033C53.998 26.2286 44.3927 30.2302 37.319 37.3315C30.245 44.4316 26.2813 54.0495 26.2975 64.0712C26.3136 74.0917 30.3096 83.697 37.4065 90.7744C44.5034 97.8516 54.1211 101.822 64.1462 101.814C74.1713 101.806 83.7822 97.8195 90.8676 90.7306C97.9531 83.6419 101.934 74.0307 101.934 64.0091C101.909 53.9736 97.9045 44.358 90.7973 37.2702C83.69 30.1839 74.0608 26.2033 64.0231 26.2033Z" fill="#D75656"/>
<path fill-rule="evenodd" clip-rule="evenodd" d="M40.6037 87.461C46.8078 93.6892 55.2299 97.2008 64.0229 97.225C72.8385 97.225 81.2957 93.7272 87.5343 87.499C93.7729 81.2719 97.2846 72.8238 97.2961 64.0097C97.2846 55.2209 93.7832 46.7957 87.562 40.5846C81.3396 34.3746 72.908 30.8859 64.1151 30.8859C55.3233 30.8859 46.8906 34.3743 40.6693 40.5854C34.4481 46.7954 30.9468 55.2206 30.9341 64.0094C30.9226 72.7982 34.3998 81.2339 40.6037 87.461Z" fill="#FFE0E0"/>
<g clip-path="url(#clip0_136_392)">
<path d="M64.4226 43.4507L81.682 56.7936C82.0275 57.0624 82.085 57.5517 81.8258 57.8977C81.6724 58.0995 81.4417 58.2051 81.2019 58.2051H76.0472C75.5193 58.2051 75.7307 57.8789 75.7307 57.3607L63.895 48.2129L52.4145 57.2743V58.1863C51.6848 58.3591 47.9797 58.2057 46.9433 58.2057C46.5114 58.2057 46.1562 57.8505 46.1562 57.4186C46.1562 57.1402 46.3 56.9003 46.5114 56.756L63.4054 43.4235C63.7128 43.1837 64.1447 43.2025 64.4231 43.4621L64.4226 43.4507Z" fill="black"/>
<path fill-rule="evenodd" clip-rule="evenodd" d="M53.1918 57.6469V71.1525C53.4128 71.2002 53.6333 71.2581 53.8544 71.3059C56.1104 71.8242 58.3561 72.3424 60.4871 72.3236V67.2553C60.4871 65.5563 61.4276 64.4715 62.6373 63.9918C63.0982 63.8094 63.5875 63.7133 64.0676 63.7133C64.5478 63.7133 65.0371 63.8094 65.4979 63.9918C66.7072 64.4719 67.6482 65.5659 67.6482 67.2553V70.3365C68.2818 70.183 68.9824 70.0774 69.808 70.0484C71.5361 69.9813 73.2636 70.2115 74.9433 70.586V57.7519L63.8948 49.2087L53.1917 57.6558L53.1918 57.6469Z" fill="black"/>
<path fill-rule="evenodd" clip-rule="evenodd" d="M62.0615 67.2555V72.1988C62.6469 72.1027 63.1748 71.9589 63.6645 71.7958C64.1635 71.6231 64.634 71.431 65.1045 71.2293C65.4307 71.0952 65.7477 70.9605 66.0836 70.8264V67.2458C66.0836 66.2957 65.575 65.6911 64.9317 65.4314C64.6726 65.3258 64.3748 65.278 64.0776 65.278C63.7798 65.278 63.4826 65.3258 63.2235 65.4314C62.5706 65.6906 62.0716 66.2952 62.0716 67.2458L62.0615 67.2555Z" fill="black"/>
<path fill-rule="evenodd" clip-rule="evenodd" d="M69.8751 71.6142C68.3971 71.6716 67.3219 72.0268 66.3138 72.4302C66.1121 72.5166 65.9013 72.5933 65.6995 72.6797C65.1909 72.8911 64.6818 73.1019 64.1352 73.294C63.8664 73.3804 63.5976 73.4667 63.3095 73.5435C62.7242 73.6969 62.0809 73.8123 61.332 73.86L60.4875 73.9174V73.8885C58.1645 73.9078 55.8414 73.3702 53.4996 72.8326C49.0166 71.7961 44.4478 70.7403 40.1852 73.9174C39.9932 74.0612 39.7534 74.0998 39.542 74.0516V77.9873C44.2937 74.6374 49.112 75.7507 53.854 76.8451C56.1963 77.3827 58.5188 77.9203 60.7271 77.8629C62.6278 77.8054 63.8661 77.2867 65.1043 76.7781C66.429 76.2212 67.7439 75.674 69.8174 75.5876C73.1963 75.4535 76.5365 76.4707 79.5505 77.3827C83.1311 78.4675 86.2219 79.408 87.9016 77.93C88.1227 77.7379 88.4296 77.6901 88.6887 77.7862V73.764C86.356 75.5398 82.9868 74.513 79.0897 73.3321C76.191 72.4491 72.9848 71.4796 69.8651 71.6041L69.8751 71.6142Z" fill="black"/>
<path fill-rule="evenodd" clip-rule="evenodd" d="M69.8751 77.1515C68.0896 77.2185 66.8997 77.718 65.6995 78.2266C64.3363 78.7931 62.9639 79.3688 60.7658 79.4359C58.3564 79.5029 55.9373 78.9466 53.5091 78.38C49.0261 77.3435 44.4573 76.2877 40.1948 79.4648C40.0027 79.6086 39.7629 79.6472 39.5515 79.599V83.5347C44.3032 80.1848 49.1215 81.2981 53.8635 82.3925C56.2059 82.9301 58.5283 83.4677 60.7366 83.4102C62.6374 83.3528 63.8757 82.8341 65.1138 82.3255C66.4385 81.7686 67.7534 81.2213 69.8269 81.135C73.2058 81.0008 76.546 82.0181 79.5601 82.9301C83.1406 84.0149 86.2314 84.9554 87.9112 83.4773C88.1322 83.2853 88.4391 83.2375 88.6982 83.3335V79.3114C86.3655 81.0872 82.9963 80.0604 79.0992 78.8795C76.2005 77.9964 72.9943 77.027 69.8746 77.1515L69.8751 77.1515Z" fill="black"/>
</g>
</g>
<defs>
<filter id="filter0_f_136_392" x="0" y="0" width="128" height="162" filterUnits="userSpaceOnUse" color-interpolation-filters="sRGB">
<feFlood flood-opacity="0" result="BackgroundImageFix"/>
<feBlend mode="normal" in="SourceGraphic" in2="BackgroundImageFix" result="shape"/>
<feGaussianBlur stdDeviation="5" result="effect1_foregroundBlur_136_392"/>
</filter>
<clipPath id="clip0_136_392">
<rect width="49.3921" height="49.3921" fill="white" transform="translate(39.3062 39)"/>
</clipPath>
</defs>
</svg>
