<svg width="138" height="128" viewBox="0 0 138 128" fill="none" xmlns="http://www.w3.org/2000/svg">
<g filter="url(#filter0_f_136_363)">
<path d="M107.235 -13.1884C97.3056 -23.157 83.8599 -28.8335 69.7888 -28.9969C62.5826 -29.0739 55.433 -27.7202 48.7537 -25.0138C42.0756 -22.3086 36.0005 -18.3048 30.8803 -13.2358C24.1516 -6.52905 19.3112 1.83308 16.8476 11.007C14.3841 20.1798 14.3841 29.8416 16.8476 39.0144C19.311 48.1883 24.1516 56.5504 30.8803 63.256L31.0425 63.4182C36.0694 68.3929 40.4128 74.0125 43.9581 80.1306L59.7487 107.715C61.6426 110.986 65.1381 113 68.919 113C72.6998 113 76.1953 110.986 78.0893 107.715L94.0422 80.0847C97.6298 73.9024 102.028 68.2272 107.12 63.21C113.848 56.5033 118.689 48.1423 121.152 38.9684C123.616 29.7944 123.616 20.1338 121.152 10.9598C118.689 1.78708 113.848 -6.57505 107.12 -13.2818L107.235 -13.1884ZM103.803 60.08C98.4794 65.3434 93.8782 71.291 90.1226 77.7666L74.1697 105.396C73.1054 107.237 71.1391 108.372 69.0115 108.372C66.8829 108.372 64.9167 107.237 63.8522 105.396L47.8992 77.7666C44.078 71.2312 39.3988 65.2362 33.9864 59.9419C27.8617 53.7885 23.4676 46.1304 21.247 37.7385C19.0263 29.3466 19.0586 20.5178 21.3402 12.1418C23.6218 3.76733 28.0722 -3.85984 34.2419 -9.96736C43.4996 -19.1381 55.9904 -24.3069 69.0225 -24.3622H69.6945C82.7434 -24.1897 95.1938 -18.8619 104.325 -9.54188C113.457 -0.223074 118.528 12.3315 118.43 25.3771C118.332 38.4222 113.074 50.898 103.803 60.08Z" fill="black"/>
<path d="M69.023 -12.7967C58.998 -12.7714 49.3926 -8.76982 42.319 -1.66854C35.245 5.43158 31.2812 15.0495 31.2974 25.0712C31.3135 35.0917 35.3095 44.697 42.4064 51.7744C49.5034 58.8516 59.1211 62.8223 69.1462 62.814C79.1712 62.806 88.7822 58.8195 95.8676 51.7306C102.953 44.6419 106.934 35.0307 106.934 25.0091C106.909 14.9736 102.904 5.35797 95.7972 -1.72978C88.69 -8.81605 79.0608 -12.7967 69.023 -12.7967ZM69.023 58.225C60.2301 58.2008 51.8079 54.6892 45.6038 48.461C39.3999 42.2339 35.9228 33.7982 35.9342 25.0094C35.9469 16.2206 39.4483 7.79543 45.6695 1.58545C51.8907 -4.62571 60.3234 -8.11408 69.1152 -8.11408C77.9082 -8.11408 86.3397 -4.62542 92.5621 1.58457C98.7834 7.79573 102.285 16.2209 102.296 25.0097C102.285 33.8238 98.7731 42.2719 92.5345 48.499C86.2959 54.7272 77.8387 58.225 69.023 58.225Z" fill="black"/>
<path fill-rule="evenodd" clip-rule="evenodd" d="M90.1227 77.7666C93.8782 71.291 98.4794 65.3433 103.803 60.08C113.074 50.8978 118.332 38.4228 118.43 25.3771C118.528 12.3315 113.457 -0.223074 104.325 -9.54188C95.1939 -18.8619 82.7435 -24.1897 69.6945 -24.3622H69.0226C55.9905 -24.3069 43.4997 -19.1381 34.2419 -9.96736C28.0722 -3.85984 23.6219 3.76734 21.3403 12.1418C19.0586 20.5178 19.0264 29.3466 21.2471 37.7385C23.4677 46.1304 27.8618 53.7885 33.9864 59.9419C39.3988 65.2362 44.0781 71.2312 47.8993 77.7666L63.8522 105.396C64.9167 107.237 66.883 108.372 69.0116 108.372C71.1391 108.372 73.1055 107.237 74.1698 105.396L90.1227 77.7666ZM69.0231 -12.7967C58.998 -12.7714 49.3927 -8.76982 42.319 -1.66853C35.245 5.43158 31.2813 15.0495 31.2975 25.0712C31.3136 35.0917 35.3096 44.697 42.4065 51.7744C49.5034 58.8516 59.1211 62.8223 69.1462 62.814C79.1713 62.806 88.7822 58.8195 95.8676 51.7306C102.953 44.6419 106.934 35.0307 106.934 25.0091C106.909 14.9736 102.904 5.35797 95.7973 -1.72978C88.69 -8.81605 79.0608 -12.7967 69.0231 -12.7967Z" fill="#D75656"/>
<path fill-rule="evenodd" clip-rule="evenodd" d="M45.6037 48.461C51.8078 54.6892 60.2299 58.2008 69.0229 58.225C77.8385 58.225 86.2957 54.7272 92.5343 48.499C98.7729 42.2719 102.285 33.8238 102.296 25.0097C102.285 16.2209 98.7832 7.79573 92.562 1.58457C86.3396 -4.62542 77.908 -8.11408 69.1151 -8.11408C60.3233 -8.11408 51.8906 -4.62572 45.6693 1.58545C39.4481 7.79543 35.9468 16.2206 35.9341 25.0094C35.9226 33.7982 39.3998 42.2339 45.6037 48.461Z" fill="#FFE0E0"/>
<g clip-path="url(#clip0_136_363)">
<path fill-rule="evenodd" clip-rule="evenodd" d="M68.6422 15.6812C67.6195 27.2495 44.3062 39.8427 44.3062 39.8427L93.6983 39.843C77.5376 34.214 75.7493 19.7245 75.7493 19.7245C70.5819 23.6164 68.6422 15.6812 68.6422 15.6812Z" fill="black"/>
<path fill-rule="evenodd" clip-rule="evenodd" d="M75.9005 15.733C77.7797 15.733 77.6588 13.1461 75.5521 13.2902C73.4461 13.4349 73.3168 17.5994 73.3168 17.5994C73.381 17.5486 73.4516 17.428 73.5435 17.2711C73.8633 16.7248 74.4404 15.7389 75.9005 15.733Z" fill="black"/>
<path fill-rule="evenodd" clip-rule="evenodd" d="M72.3322 15.5128C72.3322 15.5128 74.0371 10.5821 71.6349 9.46689C69.2334 8.35157 67.9451 11.3255 70.1427 12.1749C71.8511 12.8358 72.0845 14.2437 72.2142 15.0266C72.2513 15.2505 72.28 15.4233 72.3322 15.5128Z" fill="black"/>
</g>
</g>
<defs>
<filter id="filter0_f_136_363" x="0" y="-44" width="138" height="172" filterUnits="userSpaceOnUse" color-interpolation-filters="sRGB">
<feFlood flood-opacity="0" result="BackgroundImageFix"/>
<feBlend mode="normal" in="SourceGraphic" in2="BackgroundImageFix" result="shape"/>
<feGaussianBlur stdDeviation="7.5" result="effect1_foregroundBlur_136_363"/>
</filter>
<clipPath id="clip0_136_363">
<rect width="49.3921" height="49.3921" fill="white" transform="translate(44.3062)"/>
</clipPath>
</defs>
</svg>
