<svg width="122" height="156" viewBox="0 0 122 156" fill="none" xmlns="http://www.w3.org/2000/svg">
<g filter="url(#filter0_f_136_450)">
<path d="M99.2352 22.8116C89.3056 12.843 75.8599 7.16654 61.7888 7.00311C54.5826 6.92605 47.433 8.27983 40.7537 10.9862C34.0756 13.6914 28.0005 17.6952 22.8803 22.7642C16.1516 29.471 11.3112 37.8331 8.84757 47.007C6.38414 56.1798 6.38414 65.8416 8.84757 75.0144C11.311 84.1883 16.1516 92.5504 22.8803 99.256L23.0425 99.4182C28.0694 104.393 32.4128 110.013 35.9581 116.131L51.7487 143.715C53.6426 146.986 57.1381 149 60.919 149C64.6998 149 68.1953 146.986 70.0893 143.715L86.0422 116.085C89.6298 109.902 94.0284 104.227 99.1197 99.21C105.848 92.5033 110.689 84.1423 113.152 74.9684C115.616 65.7944 115.616 56.1338 113.152 46.9598C110.689 37.7871 105.848 29.425 99.1197 22.7182L99.2352 22.8116ZM95.8031 96.08C90.4794 101.343 85.8782 107.291 82.1226 113.767L66.1697 141.396C65.1054 143.237 63.1391 144.372 61.0115 144.372C58.8829 144.372 56.9167 143.237 55.8522 141.396L39.8992 113.767C36.078 107.231 31.3988 101.236 25.9864 95.9419C19.8617 89.7885 15.4676 82.1304 13.247 73.7385C11.0263 65.3466 11.0586 56.5178 13.3402 48.1418C15.6218 39.7673 20.0722 32.1402 26.2419 26.0326C35.4996 16.8619 47.9904 11.6931 61.0225 11.6378H61.6945C74.7434 11.8103 87.1938 17.1381 96.3249 26.4581C105.457 35.7769 110.528 48.3315 110.43 61.3771C110.332 74.4222 105.074 86.898 95.8031 96.08Z" fill="black"/>
<path d="M61.023 23.2032C50.998 23.2286 41.3926 27.2302 34.319 34.3315C27.245 41.4316 23.2812 51.0495 23.2974 61.0712C23.3135 71.0917 27.3095 80.697 34.4064 87.7744C41.5034 94.8516 51.1211 98.8223 61.1462 98.814C71.1712 98.806 80.7822 94.8195 87.8676 87.7306C94.953 80.6419 98.9339 71.0307 98.9339 61.0091C98.9086 50.9736 94.9044 41.358 87.7972 34.2702C80.69 27.1839 71.0608 23.2032 61.023 23.2032ZM61.023 94.225C52.2301 94.2008 43.8079 90.6892 37.6038 84.461C31.3999 78.2339 27.9228 69.7982 27.9342 61.0094C27.9469 52.2206 31.4483 43.7954 37.6695 37.5854C43.8907 31.3743 52.3234 27.8859 61.1152 27.8859C69.9082 27.8859 78.3397 31.3746 84.5621 37.5846C90.7834 43.7957 94.2847 52.2209 94.2962 61.0097C94.2847 69.8238 90.7731 78.2719 84.5345 84.499C78.2959 90.7272 69.8387 94.225 61.023 94.225Z" fill="black"/>
<path fill-rule="evenodd" clip-rule="evenodd" d="M82.1227 113.767C85.8782 107.291 90.4794 101.343 95.8032 96.08C105.074 86.8979 110.332 74.4228 110.43 61.3772C110.528 48.3315 105.457 35.7769 96.325 26.4581C87.1939 17.1381 74.7435 11.8103 61.6945 11.6378H61.0226C47.9905 11.6931 35.4997 16.8619 26.2419 26.0326C20.0722 32.1402 15.6219 39.7673 13.3403 48.1418C11.0586 56.5178 11.0264 65.3467 13.2471 73.7385C15.4677 82.1304 19.8618 89.7885 25.9864 95.9419C31.3988 101.236 36.0781 107.231 39.8993 113.767L55.8522 141.396C56.9167 143.237 58.883 144.372 61.0116 144.372C63.1391 144.372 65.1055 143.237 66.1698 141.396L82.1227 113.767ZM61.0231 23.2033C50.998 23.2286 41.3927 27.2302 34.319 34.3315C27.245 41.4316 23.2813 51.0496 23.2975 61.0712C23.3136 71.0917 27.3096 80.697 34.4065 87.7744C41.5034 94.8516 51.1211 98.8223 61.1462 98.814C71.1713 98.806 80.7822 94.8195 87.8676 87.7306C94.9531 80.642 98.934 71.0307 98.934 61.0091C98.9086 50.9736 94.9045 41.358 87.7973 34.2702C80.69 27.184 71.0608 23.2033 61.0231 23.2033Z" fill="#D75656"/>
<path fill-rule="evenodd" clip-rule="evenodd" d="M37.6037 84.461C43.8078 90.6892 52.2299 94.2009 61.0229 94.225C69.8385 94.225 78.2957 90.7272 84.5343 84.499C90.7729 78.2719 94.2846 69.8238 94.2961 61.0097C94.2846 52.2209 90.7832 43.7957 84.562 37.5846C78.3396 31.3746 69.908 27.8859 61.1151 27.8859C52.3233 27.8859 43.8906 31.3743 37.6693 37.5855C31.4481 43.7954 27.9468 52.2206 27.9341 61.0094C27.9226 69.7982 31.3998 78.2339 37.6037 84.461Z" fill="#FFE0E0"/>
<path d="M70.4008 75.2336C67.3503 73.6507 65.7666 69.5318 65.7666 65.7249C65.7666 61.9247 63.2293 60.5507 59.4259 59.0169C55.6234 57.4859 52.1364 59.1784 49.6026 53.8966C47.0653 48.6122 49.9203 44.8075 46.1169 43.5402C42.3123 42.2728 44.5318 41.0029 38.1912 41.6383V80.938L73.6882 80.9384C73.6882 80.9393 73.4493 76.8183 70.401 75.234L70.4008 75.2336Z" fill="black"/>
<path d="M52.6936 48.8526C52.6936 48.8526 55.1499 48.6137 55.9403 47.4247C56.7342 46.2348 57.6838 43.8616 56.9709 42.4358C56.258 41.0066 53.4065 40.534 52.6936 40.534C51.9794 40.534 50.0778 42.1956 50.5514 43.6235C51.0284 45.048 51.1341 49.1904 52.6936 48.8527V48.8526Z" fill="black"/>
<path d="M57.2224 54.9526C58.4777 55.2682 59.9033 55.2703 60.6946 55.5867C61.4863 55.9023 63.0713 54.4282 63.5474 53.8981C64.0244 53.3672 64.1815 51.9401 62.9133 51.4675C62.1556 51.1833 60.9096 51.6572 59.825 51.7447C59.0942 51.803 58.3679 51.4505 58.1611 51.4675C57.6453 51.504 55.9693 54.635 57.2223 54.9527L57.2224 54.9526Z" fill="black"/>
<path d="M83.6727 69.3709C83.5134 67.1513 82.8779 64.6175 80.6596 63.9846C78.4435 63.3505 77.4016 62.1367 76.3441 62.8731C76.3441 62.8731 74.1628 64.1439 73.6879 65.5684C73.2118 66.9941 71.786 70.3218 73.6879 70.9572C75.5886 71.5891 77.1749 72.8535 77.9674 73.9659C78.7577 75.0774 80.9108 74.4429 82.293 73.9659C83.6727 73.4897 83.8311 71.5927 83.6727 69.3709Z" fill="black"/>
<path d="M68.5501 62.6459C70.0433 62.7168 73.2126 63.021 73.6883 61.2053C74.1631 59.3886 72.1032 57.9621 69.7278 57.0124C69.7278 57.0124 66.7148 58.3336 67.5095 59.0187C68.3011 59.7068 67.0595 62.5731 68.5501 62.6459Z" fill="black"/>
<path d="M79.6427 58.8622C81.2482 59.5942 82.2932 58.914 82.2932 57.2715C82.2932 55.6304 82.9108 55.1799 82.1078 55.1799C82.1078 55.1799 78.9172 55.109 79.2349 56.379C79.5518 57.6468 78.008 58.1216 79.6427 58.8623L79.6427 58.8622Z" fill="black"/>
</g>
<defs>
<filter id="filter0_f_136_450" x="0" y="0" width="122" height="156" filterUnits="userSpaceOnUse" color-interpolation-filters="sRGB">
<feFlood flood-opacity="0" result="BackgroundImageFix"/>
<feBlend mode="normal" in="SourceGraphic" in2="BackgroundImageFix" result="shape"/>
<feGaussianBlur stdDeviation="3.5" result="effect1_foregroundBlur_136_450"/>
</filter>
</defs>
</svg>
